<svg width="21" height="20" viewBox="0 0 21 20" fill="none" xmlns="http://www.w3.org/2000/svg">
<path fill-rule="evenodd" clip-rule="evenodd" d="M13.4595 0.323804C14.1338 0.1264 14.8506 0.1264 15.5249 0.323804C16.0275 0.470934 16.4499 0.747558 16.8685 1.09527C17.2714 1.42997 17.7282 1.88073 18.2827 2.42797L18.339 2.48347C18.9072 3.04417 19.3747 3.50551 19.7217 3.91295C20.0818 4.3358 20.3688 4.76372 20.5212 5.27509C20.7254 5.96006 20.7254 6.68968 20.5212 7.37465C20.3688 7.88601 20.0818 8.31394 19.7217 8.73678C19.3747 9.14422 18.9072 9.60556 18.339 10.1663L17.0821 11.4066C16.7511 11.7332 16.6544 11.8321 16.5781 11.9348C16.4315 12.1322 16.3251 12.3565 16.2651 12.5949C16.2338 12.7191 16.2184 12.8566 16.175 13.3195L16.1718 13.3541C16.0727 14.4099 15.994 15.2482 15.8897 15.8935C15.7864 16.5315 15.6408 17.1121 15.3328 17.5735C14.4418 18.9087 12.7873 19.5112 11.2462 19.0617C10.7137 18.9064 10.2288 18.5554 9.73946 18.1332C9.24457 17.7061 8.64526 17.1147 7.89047 16.3698L6.7425 15.237L2.20819 19.7116C1.8544 20.0607 1.28456 20.0569 0.935426 19.7031C0.586291 19.3494 0.590068 18.7795 0.943861 18.4304L5.46119 13.9725L4.44194 12.9667C3.67835 12.2132 3.07268 11.6155 2.63495 11.1222C2.20284 10.6352 1.84228 10.1522 1.67963 9.62046C1.20408 8.0657 1.80648 6.38322 3.16081 5.48364C3.62402 5.17596 4.20921 5.03159 4.8522 4.92956C5.50357 4.8262 6.35096 4.74877 7.4193 4.65116L7.45367 4.64802C7.90617 4.60667 8.04056 4.59205 8.16215 4.56216C8.39838 4.5041 8.62105 4.40064 8.81777 4.25755C8.91902 4.1839 9.01687 4.09062 9.34029 3.77146L10.7017 2.42795C11.2562 1.88072 11.713 1.42997 12.1159 1.09527C12.5345 0.747558 12.9569 0.470934 13.4595 0.323804ZM15.0192 2.0513C14.6751 1.95057 14.3093 1.95057 13.9652 2.0513C13.7962 2.1008 13.5936 2.20781 13.2661 2.4799C12.9296 2.75939 12.5275 3.15509 11.9381 3.73671L10.6046 5.05266C10.5906 5.06647 10.5768 5.0801 10.5632 5.09356C10.2987 5.35468 10.1009 5.55006 9.87659 5.7132C9.49109 5.99361 9.05472 6.19635 8.5918 6.31014C8.32248 6.37633 8.04554 6.40156 7.67543 6.43527C7.65636 6.437 7.63704 6.43876 7.61746 6.44055C6.50712 6.54201 5.71952 6.61445 5.1343 6.70732C4.53374 6.80261 4.27798 6.90248 4.15674 6.98301C3.46565 7.44206 3.15825 8.3006 3.40092 9.09398C3.44349 9.23316 3.57773 9.47267 3.98132 9.9275C4.37461 10.3707 4.93723 10.9266 5.73084 11.7098L9.13005 15.0642C9.91506 15.8389 10.4717 16.3875 10.9154 16.7704C11.3701 17.1627 11.6097 17.2927 11.7503 17.3337C12.5367 17.5631 13.3809 17.2557 13.8356 16.5743C13.917 16.4525 14.0169 16.1989 14.1128 15.606C14.2064 15.0274 14.2799 14.2494 14.3829 13.1513C14.3848 13.1313 14.3866 13.1115 14.3884 13.092C14.4238 12.7134 14.4503 12.4302 14.5196 12.1552C14.6373 11.688 14.8457 11.2485 15.133 10.8616C15.302 10.634 15.5046 10.4343 15.7753 10.1673C15.7893 10.1535 15.8034 10.1395 15.8178 10.1254L17.0463 8.91303C17.6498 8.31743 18.061 7.91061 18.3513 7.56967C18.6343 7.2374 18.7452 7.03178 18.7962 6.86056C18.9004 6.51103 18.9004 6.13871 18.7962 5.78918C18.7452 5.61796 18.6343 5.41234 18.3513 5.08006C18.061 4.73913 17.6498 4.33231 17.0463 3.73671C16.4569 3.15509 16.0548 2.75939 15.7184 2.4799C15.3908 2.20781 15.1883 2.1008 15.0192 2.0513Z" fill="#007AFF"/>
</svg>
