<svg width="23" height="23" viewBox="0 0 23 23" fill="none" xmlns="http://www.w3.org/2000/svg">
<path fill-rule="evenodd" clip-rule="evenodd" d="M11.3432 2.92877C6.36731 2.92877 2.35599 6.90601 2.35599 11.7847C2.35599 16.6633 6.36731 20.6405 11.3432 20.6405C16.3192 20.6405 20.3305 16.6633 20.3305 11.7847C20.3305 6.90601 16.3192 2.92877 11.3432 2.92877ZM0.377411 11.7847C0.377411 5.78863 5.29938 0.950195 11.3432 0.950195C17.3871 0.950195 22.3091 5.78863 22.3091 11.7847C22.3091 17.7807 17.3871 22.6191 11.3432 22.6191C5.29938 22.6191 0.377411 17.7807 0.377411 11.7847ZM15.1657 13.3135C15.6807 13.4961 15.95 14.0616 15.7674 14.5766L14.8837 14.2631C15.7674 14.5766 15.7672 14.5772 15.767 14.5777L15.7666 14.579L15.7656 14.5815L15.7636 14.5873L15.7585 14.601C15.7547 14.6111 15.75 14.6231 15.7444 14.6369C15.7333 14.6646 15.7185 14.6997 15.6997 14.7409C15.6621 14.8234 15.608 14.9316 15.5339 15.057C15.3862 15.3069 15.1557 15.6303 14.8142 15.9513C14.1129 16.6104 12.9998 17.2043 11.3432 17.2043C9.68672 17.2043 8.57358 16.6104 7.8723 15.9514C7.53078 15.6304 7.30033 15.307 7.15259 15.057C7.07852 14.9317 7.02439 14.8235 6.9868 14.741C6.96797 14.6997 6.9532 14.6647 6.94207 14.637C6.9365 14.6232 6.93183 14.6111 6.92802 14.601L6.92293 14.5873L6.92085 14.5816L6.91992 14.579L6.91949 14.5778C6.91928 14.5772 6.91908 14.5767 7.80597 14.2621L6.91907 14.5766C6.73644 14.0617 7.00582 13.4962 7.52076 13.3136C8.03086 13.1327 8.59056 13.3953 8.77857 13.9008C8.77981 13.9038 8.78259 13.9104 8.78703 13.9201C8.79855 13.9453 8.8208 13.9909 8.85584 14.0502C8.92634 14.1695 9.04508 14.3383 9.22732 14.5096C9.57358 14.835 10.2063 15.2257 11.3432 15.2257C12.4801 15.2257 13.1129 14.835 13.4592 14.5096C13.6414 14.3383 13.7601 14.1694 13.8306 14.0502C13.8657 13.9909 13.8879 13.9453 13.8994 13.92C13.9039 13.9103 13.9067 13.9037 13.9079 13.9007C14.0959 13.3952 14.6556 13.1326 15.1657 13.3135ZM8.78316 13.9134C8.78311 13.9132 8.78321 13.9135 8.78316 13.9134V13.9134Z" fill="#A2ACB0"/>
</svg>
